<svg version="1.2" xmlns="http://www.w3.org/2000/svg" viewBox="0 0 1549 283" width="1549" height="283"><defs><clipPath clipPathUnits="userSpaceOnUse" id="cp1"><path d="m-535-6139h5503v7769h-5503z"/></clipPath></defs><style>.a{fill:#2c2e35}.b{fill:#ffd036}.c{fill:#024fa3}</style><g clip-path="url(#cp1)"><path class="a" d="m106.8 213c-58.9 0-106.5-47.5-106.5-106.3 0-58.8 47.6-106.3 106.5-106.3 58.9 0 106.5 47.5 106.5 106.3 0 58.8-47.6 106.3-106.5 106.3z"/><path class="b" d="m88.5 48.8h36.4v14.5h55.7v32.5h-55.7v27.1h0.2c0 5.2 4.3 9.4 9.5 9.4 5.2 0 9.5-4.2 9.6-9.4v-13.5h36.4v29.9c0 13.9-8.8 22.5-22.3 25.1h-0.1-102.2-0.1-0.1-0.2-0.1-0.2-0.1c-12.8-1.3-22.2-12-22.3-24.8v-0.3-29.3-46.5h36.5v59.4c0 5.2 4.3 9.4 9.5 9.4 5.2 0 9.5-4.2 9.6-9.4h-0.1l0.1-27.1h-12.3v-32.5h12.3z"/><path class="a" d="m1414.9 64.2h9.2c9.2 0 16.8 2.6 22.5 7.6 5.7 4.9 8.5 11.5 8.5 19.5 0 9.5-3.1 16.4-9.5 20.7-1.7 1.2-3.5 2.2-5.7 2.9 1.1 0.6 2.3 1.1 3.3 1.6 10.9 6.6 11.6 34.6 13.5 45.5h-20.6c-1.2-7.3-1.8-31.2-8.1-35.9-2.5-1.9-6.7-2.7-12.6-2.7h-0.5v-16.6h3.8c5.4 0 9.4-1 12-3.1 2.7-2.2 4-5.5 4-9.8 0-4.3-1.3-7.6-3.7-9.6-2.6-2.2-6.4-3.2-11.4-3.2h-4.7zm-40.3 97.8v-97.8h10.2 30.1v17h-19.9v25.7h19.9v16.5h-19.9v38.6h-10.2zm-445.2-97.8h9.2c9.4 0 16.9 2.6 22.6 7.6 5.8 4.9 8.6 11.5 8.6 19.6 0 9.4-3.3 16.4-9.6 20.7-1.6 1.1-3.6 2.1-5.7 2.8 1.3 0.6 2.2 1.2 3.3 1.6 10.9 6.6 11.6 34.6 13.5 45.5h-20.5c-1.2-7.3-2-31.1-8.1-35.9q-3.9-2.7-12.6-2.7h-0.7v-16.5h4.1c5.3 0 9.2-1 11.9-3.2 2.6-2.1 3.9-5.4 3.9-9.7 0-4.3-1.2-7.7-3.8-9.7-2.4-2.1-6.3-3.1-11.3-3.1h-4.8zm-40.3 97.8v-97.8h10.3 30v16.9h-19.7v25.7h19.7v16.5h-19.7v38.7h-10.2zm-551.7-36.9c0 14-3.1 24.1-9.2 30.3-6.2 6.1-16.4 9.3-30.4 9.3-13.4 0-23.4-3.3-29.9-9.8-6.5-6.4-9.6-16.3-9.8-29.8v-60.9h10.2 10.4v61.6c0 7 1.6 12.2 4.7 15.8 3.2 3.4 7.9 5.3 14.4 5.3 6.9 0 11.8-1.7 14.7-4.9 2.8-3.3 4.4-8.6 4.4-16.2v-61.6h10.2 10.3zm38.2 36.9h-9.6-9.5v-97.8h10.6 10.8l39.4 68.6v-68.6h9.5 9.7v97.8h-10.2-10.3l-40.4-70.5zm78.8 0v-97.9h10.3 10.3v97.9h-10.2zm60.9 0v-80.5h-29.7v-8.6-8.8h79.7v8.8 8.6h-29.6v80.5h-10.2zm62.2 0v-97.9h72.3v8.8 8.6h-51.8v20.7h48v8.5 8.4h-48v25.5h54v8.7 8.7zm132.8-97.9h0.4c13.4 0 23.6 4 30.7 12 7 7.8 10.5 19.4 10.5 34.6 0 16.6-3.6 29.4-11 38.2-7 8.5-17.2 12.8-30.6 13.1v-17.1c6.5-0.8 11.4-3.5 14.8-8.2 4.2-5.6 6.3-14.1 6.3-25.3 0-10.2-2-17.8-5.8-22.8-3.5-4.5-8.5-7.1-15.3-7.5zm-41.6 97.8v-97.8h10.2 31.4v16.9h-2.2-19v64.1h17.3c1.5 0 2.6-0.1 3.9-0.3v17.1h-1.3-30.1zm157.7 0v-80.4h-29.6v-8.6-8.8h79.6v8.8 8.6h-29.6v80.4h-10.2zm199.7-97.8h0.2 11.8l34.8 97.8h-10.9-10.8l-6.6-19.8h-18.5v-17h13l-13-39.3zm-46.4 97.8l34.7-97.8h11.7v21.7l-13.1 39.3h13.1v17h-18.7l-6.5 19.8h-10.5zm226.2 0v-80.4h-29.6v-8.6-8.8h79.7v8.8 8.6h-29.7v80.4h-10.2zm105-100.4c14.6 0 26.1 4.7 34.4 14.1 8.5 9.2 12.8 21.9 12.8 37.9 0 15.7-4.3 28.1-12.8 37.4-8.3 9.1-19.8 13.7-34.4 13.7v-17.4c8.4 0 14.9-3 19.6-9 4.8-5.9 7.1-14.2 7.1-24.8 0-10.8-2.3-19.3-7.1-25.5-4.7-6-11.2-9-19.6-9zm0 103.1c-14.3 0-25.8-4.6-34.3-13.8-8.5-9.2-12.8-21.7-12.8-37.3 0-16 4.3-28.7 12.8-37.9 8.5-9.4 20-14.1 34.3-14.1v17.4q-12.5 0-19.5 9c-4.8 6.2-7.1 14.6-7.1 25.4 0 10.7 2.3 19 7.1 24.9 4.6 6 11.2 9 19.5 9zm215.4-71.2c-0.3-4.8-2.3-8.3-6.1-10.9q-5.6-4.2-14.7-4.2-7.7 0-12 3.5c-3.1 2.2-4.5 5.3-4.5 9.4 0 2.9 1.6 5.2 4.6 6.8 3 1.6 9.5 3.4 19.3 5.6 14.2 3.3 23.9 6.9 28.6 11 4.8 4.2 7.2 10.8 7.2 20 0 9.2-3.6 16.5-10.8 21.8-7.3 5.5-17.1 8.2-29.5 8.2-12.3 0-22.1-2.8-29-8.6-7.1-5.7-10.8-13.9-11.2-24.4h19.6c0.3 5.2 2.2 9.2 5.8 11.9 3.5 2.9 8.5 4.3 14.8 4.3 6.5 0 11.7-1.1 15.3-3.1 3.7-2.2 5.6-5 5.6-8.9 0-3.6-1.5-6.4-4-8.1-2.6-1.7-8.1-3.6-16.6-5.4-15.5-3.5-25.9-7.2-31.2-11.2-5.2-4.1-7.8-10.3-7.8-18.9q0-14 10.4-22.4c6.9-5.6 16.1-8.3 27.9-8.3 10.9 0 20 2.9 26.7 8.6 7 5.8 10.8 13.7 11.6 23.3zm-402.8 71.2c-14.5 0-25.9-4.6-34.4-13.8-8.5-9.1-12.7-21.5-12.7-37.3 0-16 4.2-28.6 12.7-37.9 8.5-9.4 19.9-14.1 34.4-14.1 14.6 0 26.1 4.7 34.6 14.1 4.4 5 7.7 10.7 9.9 17.6h-21.6c-1-1.8-2-3.7-3.3-5.3-4.8-6-11.2-9-19.6-9-8.3 0-14.9 3-19.5 9-4.8 6.2-7.2 14.7-7.2 25.4 0 10.7 2.4 19 7 25 4.8 5.9 11.2 9 19.7 9 8.4 0 14.8-3.1 19.6-9 1.6-2 2.9-4.1 3.9-6.6h21.4c-2 7.5-5.5 13.8-10.3 19.1q-12.8 13.8-34.6 13.8z"/><path fill-rule="evenodd" class="c" d="m833.9 281.8v-30.6c0-6.5-2.6-11.7-10.3-11.7-6.7 0-13.2 5.3-13.2 16.8v25.5h-6v-30.6c0-6.5-2.6-11.7-10.4-11.7-6.6 0-13.1 5.3-13.1 16.8v25.5h-6v-35.2c0-3.6 0-7.2-0.4-10.9h5.9v7.8l0.1 0.1c2-3.2 4.8-9 15.3-9 4.3 0 11.4 1.8 12.9 9.8h0.2c2.2-5.4 8-9.8 15.6-9.8 9.9 0 15.4 6.5 15.4 15.5v31.7zm53.6-1.5c-4.2 1.6-9.7 2.5-14.2 2.5-16.2 0-22.2-10.3-22.2-24.1 0-14 8.2-24.1 20.6-24.1 13.8 0 19.4 10.5 19.4 22.9v2.9h-33.4c0 9.7 5.6 17.6 16.1 17.6 4.4 0 10.8-1.8 13.7-3.5zm-3-24.8c0-8-3.4-16-12.4-16-8.9 0-14.4 8.4-14.4 16zm77.1 26.3v-30.6c0-6.5-2.6-11.7-10.3-11.7-6.7 0-13.2 5.4-13.2 16.8v25.5h-6v-30.6c0-6.5-2.6-11.7-10.3-11.7-6.7 0-13.2 5.4-13.2 16.8v25.5h-6v-35.2c0-3.5 0-7.2-0.4-10.8h5.9v7.7l0.1 0.1c2-3.2 4.8-8.9 15.3-8.9 4.3 0 11.4 1.7 12.9 9.7h0.2c2.2-5.4 8-9.7 15.6-9.7 9.9 0 15.4 6.4 15.4 15.4v31.7zm20.2-67.7h6.1v29.4h0.2c0.8-2.2 5.6-8.8 15.2-8.8 14.4 0 20.1 10.1 20.1 24.1 0 13.6-6.7 24.1-20.1 24.1-7 0-12-2.6-15.2-8.4h-0.2v7.3h-6.1zm20.6 25.4c-11.1 0-14.5 10.8-14.5 19.2 0 8.5 3.7 19.3 14.5 19.3 11.5 0 14.4-10.3 14.4-19.3 0-8.9-2.9-19.2-14.4-19.2zm66.1 40.8c-4.3 1.6-9.7 2.5-14.2 2.5-16.2 0-22.3-10.2-22.3-24.1 0-14 8.3-24.1 20.7-24.1 13.7 0 19.4 10.5 19.4 22.9v2.9h-33.4c0 9.7 5.5 17.6 16.1 17.6 4.4 0 10.8-1.7 13.7-3.5zm-3-24.8c0-8-3.5-16-12.5-16-8.9 0-14.3 8.4-14.3 16zm18.1-9.5c0-5 0-6.9-0.4-10.2h6v8.8h0.2c2.2-5.2 6.3-9.9 12.5-9.9 1.5 0 3.2 0.2 4.3 0.5v6c-1.3-0.4-2.9-0.6-4.5-0.6-9.5 0-12.1 10.1-12.1 18.4v22.8h-6zm77.5-11.4c15.8 0 22.8 11.6 22.8 24.1 0 12.5-7 24.1-22.8 24.1-15.8 0-22.7-11.6-22.7-24.1 0-12.5 6.9-24.1 22.7-24.1zm16.2 24.1c0-10.6-7.2-19.2-16.2-19.2-8.9 0-16.1 8.6-16.1 19.2 0 10.6 7.2 19.2 16.1 19.2 9 0 16.2-8.6 16.2-19.2zm22.1-18.1h-9.8v-4.9h9.8v-3.3c0-9.7 0.4-19.4 13-19.4 1.9 0 4.5 0.2 5.6 0.9l-0.4 4.9c-1.2-0.6-3-1-4.7-1-8.3 0-7.4 8.4-7.4 13.9v4h11v4.9h-11v41.1h-6.1zm73.8-21.8h15.1l26.3 63h-14.8l-5.8-14.5h-27.1l-5.8 14.5h-14zm7.4 12.6h-0.2l-9.6 26h19.5zm78.6-1.1c-4.2-1.7-8.9-2.7-13.6-2.7-4.6 0-10.6 1.9-10.6 8.8 0 10.9 29.4 6.3 29.4 27.4 0 13.8-11.7 19-25.2 19-7.2 0-10.5-0.9-17.1-2.4l1.2-11.4c4.7 2.4 9.9 3.9 15.2 3.9 5 0 11.9-2.4 11.9-8.1 0-12-29.4-7-29.4-27.9 0-14.1 11.6-19.2 23.4-19.2 5.8 0 11.1 0.7 16 2.2zm29.5-1.6h-19.1v-9.9h51.7v9.9h-19.2v53.1h-13.4zm40-10h14.4c14.4 0 31.5-0.4 31.5 17.1 0 7.4-5.2 13.6-13.7 14.6v0.2c3.6 0.3 5.7 3.7 7.1 6.5l10.7 24.6h-15l-8-19.6c-1.9-4.7-3.7-6.5-9.3-6.5h-4.3v26.1h-13.4zm13.4 26.9h4.4c6.6 0 14.2-0.9 14.2-8.7 0-7.6-7.5-8.2-14.2-8.2h-4.4zm65.4-26.9h15.1l26.3 63h-14.8l-5.8-14.5h-27.1l-5.8 14.5h-14zm7.4 12.6h-0.2l-9.6 26h19.5z"/></g></svg>